<mxfile host="app.diagrams.net" modified="2024-04-30T20:08:30.483Z" agent="Mozilla/5.0 (Windows NT 10.0; Win64; x64) AppleWebKit/537.36 (KHTML, like Gecko) Chrome/124.0.0.0 Safari/537.36" version="24.2.7" etag="0kSo3fYl2rhoFJvFsHj8" type="device">
  <diagram id="BC_MKwYOEIaLKkl20gw_" name="Сторінка-1">
    <mxGraphModel dx="477" dy="1407" grid="1" gridSize="10" guides="1" tooltips="1" connect="1" arrows="1" fold="1" page="1" pageScale="1" pageWidth="827" pageHeight="1169" math="0" shadow="0">
      <root>
        <mxCell id="0" />
        <mxCell id="1" parent="0" />
        <mxCell id="tG7uFUD7IvHij0ZzvA2e-1" value="" style="rounded=0;whiteSpace=wrap;html=1;" vertex="1" parent="1">
          <mxGeometry x="240" y="-40" width="280" height="40" as="geometry" />
        </mxCell>
        <mxCell id="tG7uFUD7IvHij0ZzvA2e-2" value="" style="rounded=0;whiteSpace=wrap;html=1;" vertex="1" parent="1">
          <mxGeometry x="240" width="280" height="180" as="geometry" />
        </mxCell>
        <mxCell id="tG7uFUD7IvHij0ZzvA2e-3" value="Витрати на сьогодні&lt;div&gt;&lt;br&gt;300грн &lt;span style=&quot;white-space: pre;&quot;&gt;&#x9;&lt;/span&gt;&lt;span style=&quot;white-space: pre;&quot;&gt;&#x9;&lt;/span&gt;&lt;span style=&quot;white-space: pre;&quot;&gt;&#x9;&lt;/span&gt;&lt;span style=&quot;white-space: pre;&quot;&gt;&#x9;&lt;/span&gt;&lt;span style=&quot;white-space: pre;&quot;&gt;&#x9;&lt;span style=&quot;white-space: pre;&quot;&gt;&#x9;&lt;/span&gt;&lt;span style=&quot;white-space: pre;&quot;&gt;&#x9;&lt;/span&gt;&lt;/span&gt;30.04&lt;/div&gt;" style="rounded=0;whiteSpace=wrap;html=1;align=left;" vertex="1" parent="1">
          <mxGeometry x="250" y="10" width="260" height="60" as="geometry" />
        </mxCell>
        <mxCell id="tG7uFUD7IvHij0ZzvA2e-4" value="Витрати на завтра&lt;div&gt;&lt;br&gt;210грн &lt;span style=&quot;white-space: pre;&quot;&gt;&#x9;&lt;/span&gt;&lt;span style=&quot;white-space: pre;&quot;&gt;&#x9;&lt;/span&gt;&lt;span style=&quot;white-space: pre;&quot;&gt;&#x9;&lt;/span&gt;&lt;span style=&quot;white-space: pre;&quot;&gt;&#x9;&lt;span style=&quot;white-space: pre;&quot;&gt;&#x9;&lt;/span&gt;&lt;span style=&quot;white-space: pre;&quot;&gt;&#x9;&lt;/span&gt;&lt;/span&gt;&lt;span style=&quot;white-space: pre;&quot;&gt;&#x9;&lt;/span&gt;29.04&lt;/div&gt;" style="rounded=0;whiteSpace=wrap;html=1;align=left;" vertex="1" parent="1">
          <mxGeometry x="250" y="80" width="260" height="60" as="geometry" />
        </mxCell>
        <mxCell id="tG7uFUD7IvHij0ZzvA2e-5" value="Витрати на завтра" style="rounded=0;whiteSpace=wrap;html=1;align=left;" vertex="1" parent="1">
          <mxGeometry x="250" y="150" width="260" height="30" as="geometry" />
        </mxCell>
        <mxCell id="tG7uFUD7IvHij0ZzvA2e-6" value="" style="rounded=0;whiteSpace=wrap;html=1;" vertex="1" parent="1">
          <mxGeometry x="250" y="-30" width="20" height="20" as="geometry" />
        </mxCell>
        <mxCell id="tG7uFUD7IvHij0ZzvA2e-7" value="Text" style="text;html=1;align=center;verticalAlign=middle;whiteSpace=wrap;rounded=0;" vertex="1" parent="1">
          <mxGeometry x="480" y="-27.5" width="30" height="15" as="geometry" />
        </mxCell>
        <mxCell id="tG7uFUD7IvHij0ZzvA2e-8" value="" style="shape=internalStorage;whiteSpace=wrap;html=1;backgroundOutline=1;dx=60;dy=70;" vertex="1" parent="1">
          <mxGeometry x="310" y="10" width="130" height="130" as="geometry" />
        </mxCell>
      </root>
    </mxGraphModel>
  </diagram>
</mxfile>
